<svg width="2002" height="856" fill="none" xmlns="http://www.w3.org/2000/svg"><g clip-path="url(#clip0)"><path d="M1986 123c3 0 10 2 12-1l2-5v-4c1 0 0 0 0 0l1-1v-1l1-11V8l-2-2V5h-440v1c-1 1-1-1-2-1h-4-21l-3 1-3-1h-59l-6 1-4-1h-3l-1 1c-1 1 0-1-1-1h-1v1-1h-7l1 1c-2-3-10 1-9-1l-1 1-2-1c1 2-2 1-2 0h-5-9v0h-3l-1 1c1 0 0 1 0 0l-1-1h-1a1 1 0 00-1 0l-2 1c0-2-2 2-2-1l-1 1-2-1h-14a3 3 0 00-3 2c0-2 0-2-1-1l-1-1c0 1 2 2 0 2 1-1 0-1-1-1l1-1h-1-4l-1 1V5h-1v1c-1 0-2-1 0-1a1 1 0 00-1 0l-1 1-1-1v2c-2 0 0-3-2-2 0 1-2 2 0 2h-1v1c0-2-1-1-1 0h-1c0-1 2-3-1-1V6h-1v1l-1-1 1-1h-2l-1 1h1c1 0 0 2-1 1V6v1l-1 1V7l1-1h-4l-2-1c0 2-1 0-1 0 0 2 2 0 2 1 1 1-5 0-2 1 1 1 1 2-1 1-2 0 1-3-2-1h-1l-3-1v1c-1 0 0 3-2 2V7c2 1 1-1 1-1h-1c-1 0-1-1-1 1l-23-2h-112v114s1-2 2-1c0 0-1 1 1 1v-1c1-2 2-3 1 0l-1 2-2 1h-1v3h1l2-1v1h-1 1v-1l1 1v-2l2 2h1v-1c1 0 0-2 1-1h1-1v1h1l1-2c2 0 1 1 0 0v3h8l1-1v1h1l1-1-1-1v-1c2 3 0-2 2-1v1c-1 0 2-1 1 1l-2 2h5l6-1-1 1h2a1 1 0 100-2l1 2h2c0-2 1-1 2-1v1h5l3-1 1 1h2l3-1v1h352l43-1 38 1h285l3-1zM443 69v647h94V5h-35c-2 0-3 1-3 2V5h-4v1l-1-1h-4c0 1 0 2-1 1V5h-46v64zm536-31l-1 1v1c-5 18-7 36-6 54v101l1 27a264 264 0 0018 72c7 14 14 28 23 42l19 28 8 11 22 35a144 144 0 0117 74v132l-1 10-2 3-3 2c-5 2-10 1-12-3l-2-12V484v-53h-22v1h-2l-2 1h-1c-1-1 4-1 2-2v-1h-6l-2 1c-2-1-2 1-3-1h-5c0 1-2 2-1 0l-2 1c2-1-1-1-1-1h-8c1 1 0 2 0 0h-35v196c0 15 0 28 2 39v1c4 18 10 32 21 41h1c6 6 15 9 26 11a113 113 0 0018 2l16 1h28v-4h4l-1 1c-1 0 0-2-1-1v1c-2 0-1 2 0 3h2l1-1c0 2 0 0 1 0v1h5l-1-2 1-1h1l-1 1s0 1 0 0l7 2 12-1 11-2 5-1 4-2h1c1 1 0-1 1-1h1l1-1v1c1-1 0-2-1-1v-1c0-2-1-2 1-1l1-1c-2 2 0 2 1 2l-1 1v1h1l1-1 1-1c2-1 6-2 3-4 1-1 3 2 1 2h1l1-1c0-2 1 0 2-1v-1h1l1-3 2-1v-1c5-3 9-9 12-16v-1c6-14 8-33 8-58l-1-16 1-86-2-1c1 1 2-2 2-6v-24l-1-8h1v-3h-2l1-8v-13l-2-12-2-16-2-10-1-2v-1-4h-1c0 2-4 1-3-1v-1c0-1 2 0 1-1v-4l-1-4-1-3-1-4-2-5-3 1 2 1v1h-1c0 1-1 2-2 1h-1c0-1 0-1 0 0-2 0-3 2-3-1-2 0 0-2 0-2 1 0 3-2 3 0l1 2 2-1c-2 1-4-4-3-5h1l1-2h1v-1h-1c-1-2-1-1-1 1-2 0 1 0 0 1-3 1 0 0-2-1-2 0 1-1 0-3h-1c1-1-2-2-1-3 1 2 3 3 1 0v-4l-19-34-18-26-12-18c-8-12-16-24-22-37l-1-2a123 123 0 01-13-60v-97c0-10 2-14 6-15l1-1h5l5 3 2 5 1 8v145h70l-1-2-1 1 1-1v-2l1 1c2 0 0 2 0 3h3l-1-3c1-1 3 2 3 3 1 0 3 0 2-1 1-1 1 0 1 1h1l-1-1s1-1 0 0c0-1 0-3 1-2-1 2 1 1 2 2 0-3-3 0-1-3-2 0-2 1-2-1-1 0 2-1 0-1 0 1-1 2-2 1l-1-1 1-1s0-1 0 0c0-1 0-2 1-1l-1 2c1 2 2-2 4-1-1 2 1 0 1 2h-2l2 1c0 2 1 0 0 0h1l2 1h2l2-1c-3 1-2-3-5-3v2c-2 1-1-2-3-2 1-2 1 0 2 0-1-1 0-1 1-1l3 1 1-2v2l1-5-1 2c-1-1 0-3 1-2v-6l-1-1 1-1-1-1 1-4-1-2 1-1v-3l-1-2c-1 0-2 0-1-1h1c-1-1 0-2 1-1l-1-1v-1h1c-1 0 0-3-1 0h-1l2-2c-1 0 1-5-1-3l1-1v-1l-1-8v-1l1-2h-3v-1h3v-8l-1-1h1c0-3 0-5-2-5h1l1-1v-1c-2 1-1-1 0-1v-57c-1 0-2 2-4 1 0-1 0 0 0 0h-1 2c2-1 2-3 3-2 0-17 0-41-2-59l-3-17-4-7v-2l-1-2c-1-1 0-1 0 0v-2l-1-1-1-3-7-8-5-5h-1v-1h-1l-1-1-5-2c-8-4-19-7-31-8l-21-1h-29l-25 1h-4l-13 2-3 3c-1 1 0-2-1-1h-1 1-3l-4 2-3 1h-1v1h-1l-1 1h-2v1l1 1-5 1-7 7-5 6-1 2v1h-1v1l-1 2-1 2-1 3v1zm1020 126h-3l-1 1h-79v4l-2 28-1 20-2 36-4 67-1 25-3 46-1 16-2 48-1 53v16c-1 1 1 2 1 3l-2-2v1l1 1-1 2v4h2l-1 1h-1v2l2 2h-2v3l-1 31-1 20v7l-1-44-3-79-2-51-3-51-1-23-3-47-3-59v-9l-2-21-1-34-1-13c-2-2-5-3-10-3h-75l-1 20-3 56-6 110c-4 48-6 97-7 145l-2 72-1 39-1-30-3-111-4-92-1-26-3-38-6-103-3-40h-1c0-1 1-2 2-1v-1h-4s1 0 0 0h-2 1-7v1c-1 2 2 2 1 3l-2-2h-1l-1-1v1h-1v-1l-7-1h-62-1v3c-1-1 1 1-1 1 0 2 3 1 3 2h-2l-1-1v-1c-1 0-1-1 0 0v-4l-1 1h-2v-1h-2c-2 0 1 2-1 3h-2v2h1l-1 1h1v-1l3 2h-1v1l1 2-1-1h-2c0-4 2 2 1-3 1 0 0-1 0 0v1l-1 1v2c0 2 0 1 1 1l-1 3v1l3 1c1 2-1 1-1 1l-2-1v1l1 1h-1v2h1v-2h1v1h-1c2 1 0 0 0 2v2c0 1 2 1 1 2h-1v-1 3l1 9v1l1 1c0 1-1 0 0 0l-1-1v14l1 3v8l1 22 1 15 8 132 19 309 6 83v12l1 7c0 2 1 2 3 1l8-3 9-3h1l3-2c4-1 8-5 12-7l3-2h9c13 1 24 4 34 10 3 0 6 2 8 3h1l3 1s0 1 0 0v1h1c1 1 2 2 3 1 0 2 3 1 4 2l1 1h1c0 2 2 1 3 2h2v2c1-1 2 2 3 1 1 0 2 2 2 0v1l1 1h1l1 1c1 1 1-1 2-1-1 2 0 3 2 3v-14s-1 0 0 0v-2l1-5v-6l-1-4 2-25 2-57 2-42 1-24 2-60 2-49v-2 10l1 27 1 39 1 6 1 31 1 35 3 75 1 18v3l1 20 1 15v22c1 3 4 5 13 9l8 4h2v1h5c9-2 22 5 24 3v1h3l2-1c1 2 2 2 3 1l1-1v1h1v1h1l1-1v1h3v-1c1 0 0 2 1 1l1 1v-1c0 1 2 0 1 1h3c-1-1-1-2-2-1 0-2 3 1 4 0h1v1h3v-1l3 1h1c1 2-4-1-4 1 2-1 2 0 4 1-1-1 1-1 0 0a4 4 0 014 0h1l1-1c2 1 0 1-1 1-2 1 1 1 2 1 1-1 4 0 2-2h1c0 2 3 0 4 1v-1c-1 0 2 0 1 1l1-1c-2-1 0-2 1-1 0-2 1-1 2-1l-1 1c-1-1-1 1-2 1 1 1 2 2 3 1-1 0 1-1 0 0h1c0 1 0 0 0 0v-1c2 0 1 0 0-2l2 2c0-1 0 0 0 0v1c1 0 4 1 2-2v1h-2 2v-2c2-3 5 1 7-3l6-1v-3l4-50 9-142 7-113 1-29 3-44c0-2-2 0-2-2v-1c3 3 2-4 3-6v-12l1-5v-3l1-15 1-18 1-18 3-48 4-66v-26 1l1 2 1-5v-9l1-5v-5l-1-1v-1c2 1 0-2 1-2v-3h-1a1 1 0 001-1v-3l1-1v-1-1h-1 1l1-17v-3-7l-1-1h1v-1h1v-2-6h-2v-2h2v-4a3 3 0 00-2-3zM559 675v1l-1 1c1 0 1 0 0 0l-1 2v10l1 6h-1 1l-1 1v8l2-1c1-1-1 0-1-2l1 1h1v1c3-1 1 0 1 1-1-1-1 0-1 1h-2l-1 1v6h2v1l-2-1v4h80V513l-1-179v-52 5l1 10 1 9v4l4 41 6 66 4 39 17 185 4 35 1 12 1 10v3l2 1-1 1-1 1v2h1v3h1v-1 1l-1 2v5h102V5h-38l-1 1h1-3l1-1h-4c0 1-3-1-3 1h-2l-1-1h-17l-2 1c-1-2-3 0-4 0V5h-7v297l1 16-1-6-1-10v-7l-1-3v-8l-2-15-2-20-2-26-17-173-4-37V7l-2-1V5h1v1a1 1 0 000-1c-2 0-1 2-2 0-1 1 1 2-1 2l-6-2h-41-1l-1 1V5h-2c-1 1 1 1 1 2h-1V6l-1-1h-1l-1 2h2v2l-1-1h-1s2 2 0 2l-1-1c-1 0-3-2 0-2-1 2 0 1 1 1V6c-1 1-1-1 0 0 0-2-3 0-1 1-2 0-2-1-2-2h-1c-2 1-3-1-3 1-1 1-1-1-1-1h-4v1h-2v1a2 2 0 00-2-2h-2a2 2 0 00-2 1l-1-1v1l1 1v1-1l2 1c-2 0-3 2-3-1-1 1-3 1-3-1-1 0 0 2-1 1v1c0 1-1-1-1 1-2 0-1-1 0-1V7h-1l-1-1-1-1c0 1-3-1-3 1l-1-1-1 2c1 1 0 2-1 2V8c0-1-1 2-2 0v1h1c-2 1-4-3-2 1h-3c-2-1-4 2-5 0-1 0-3-2-1-2l-1-1c1 1 1-1 1-2h-2l2 1h-1v1h-3v1l1 1h-1v2l-3 2v581l1 1h-1v1c1-1 1 1 0 0v3h1l1 1-2-1v1h1c-1 1 1 3 1 1v1a1 1 0 002 1c-1 1 0 5-1 2v3c-1 2 1 0 1 1v1c-2-2 1 1-1 2h1v5c-1-1-1 0-1 1 0-1 0 0 0 0v2l-1 1v10c-2 1 2 3-2 4v2h1l-1 1c0 1 1 2 2 1-1 2 1 3 1 4v1l-1 2-1-1c0-1 1-2-1-2v3l3-1 1 1h-1c0 1-2 1-1 2v1l1-1c1 1 0 1-1 1v1l-2-1v2c1 0 2 1 1 3v1a1 1 0 00-1 0v1l1 1h1v1l1-1v1l-1 2v-2a2 2 0 00-2 1v5l1 2h-1v3h1l1-2v1l-1 1-1 2v4h2zM0 140v42c1 16 2 33 5 49H3l1 2c-1 2 1 0 1 1-1 1-2-1-2 1v1c1-1 2 1 1 1v6l1 1 2 11 5 19 6 17 10 19c9 17 19 34 30 49l11 17 7 10a213 213 0 0129 61l1 8 2 25v137c-1 9-2 13-6 14a5 5 0 01-5 1c-7-1-9-5-9-16v-9c-3-30-1-81 0-121v-55H0v195c0 22 1 38 5 52 6 19 16 31 35 38 12 3 26 5 44 5h41c26-1 49-5 62-22v-1c5-6 9-14 11-24l4-29V494a556 556 0 00-11-87l-2-4-1-3-1-5-1-1v-1h-1a1 1 0 000-1v-1l-1-1v-1l-1-2-6-13c-11-21-23-40-37-59-9-13-19-26-26-39l-3-7c-4-7-8-15-10-23-5-13-6-25-6-39l-1-26v-55l1-25c0-6 1-9 3-10l1-1h10c3 1 4 5 5 12v25s1-1 1 1l-1-1v123h81c4-2 6-6 7-12V90c0-13-1-27-3-40l-1-5-5-13a39 39 0 00-15-19l-2-1-4-3h-1l-1 1V9h1l-1-1v1h-1c1 0 0 0 0 0l-1-1-1-1c-1 0-3 0-3 2-2 0-4 1-4-1-1 0-3 0-2 1-3-2-12 1-7-2h-5V5l2-1-1-1h2l-1-1h-1-1c-1 1-1 2-3 2 0 0 0-1 0 0V3c1-1 3-1 1-1l-1-1v1h-4c0-2 0 1-1 0v1l-5-1v1h-10c0-1-4 0-3 1h-2c-2 1-1-1-2-1-2 2-3-1-5 1-1-2-4 0-6 0h-5l-2 1c-1 0 0-2-1-1H84c-2-1-5 1-7-1-3 2-9 0-12 0l-1 1c-2 0-1 0-1 1l-4 1 1-2c-3-2-10-1-15 0h-2v1l-4 1-3 1-6 3h-1L16 21l-4 6c-4 6-6 12-8 19v1L0 84v56zm817-47h12v385s1 0 0 0v11l1 1h-1v2h1l-1 1v223h89l5-1V593l-1-24h1c0-2-1-1-2-2h2l-1-5c1 1 1 0 1-1v-1-3a2 2 0 01-2-1h2v-3c-1 1-1 0 0 0 0-3-3-1 0-3v-2h-1s1 1 0 0c2-2 0-8 1-10v-4c-2 1-1 2-2 0h2v-4h-1c0-1 0-2 1-1v-8-2c0-1-2-2 0-3v-30c-2 0-1 0-1-1 2 1 1-1 1-2v-2h-2c0-1 0-2 1-1l1 1v-2c0-1 0-2-1-1 0-2 0-1 1-1a2 2 0 000-2h-1l1-2a1 1 0 01-2 1v-1h2v-6c-2 0-1 0 0-1v-3h-1l1-2v-4c0-1-1-2-2-1l2-1c-1-1 1-3-1-3v-1a1 1 0 001 0v-12-9-3c0-1 1-5-1-6h1v-1-8h-1c0-2 2-3 0-3l1-3v-1h-1l1-1v-3h-1l1-1c0-2 1-4-1-3l1 2h-2l1-2 1-1v-20l-1-3c2 0 0-1 0-2h1v-4l-1-2v-1l1-2v-2-4h-1l1-2v-4-4c-2 0 2-1-1-3-1-1 1-2 1 0v-3c-2-1 2-3-1-4h1v-4l-1-2c1 1 1 0 1-1v-5l-1-1a2 2 0 001-2v-1l-1-3h1v-3c-1 1-1-1-1-1 2 0-1-2 1-1v-2c0 1 0 0 0 0v-3a1 1 0 000-1v-1l-1-5c2 0 0-1 1-1 0-3-1 1-2 0 2-1 0-3 2-3 0-2-1 0-1-1a1 1 0 001-1v-1a3 3 0 00-1-4l1-1v-1-2h-2a2 2 0 012-1v-7h-1c-1-1 1 0 1-1v-2-2c1-1 0-1-1-1l1-4v-6c0 1-1 2-1 0l1-3v-6-8 2c-2 0-1-2-1-2h1v-4l-1-1a1 1 0 011-1l-1-2h1V93h41V5H788v88h29zm275 717h3c-1 0 0-1 0 0l1 1v-1c2 0 0 2 2 1 0-1 1-1 0 0l3-1 1 1v-1h3l1-1s2 0 1 1l1-1 8 1c1-1 3 0 2-1h2l4-1 2 1v1l-1 1 2 1v-1h3l1-1 1 1v-1 1l1 1h1l-1-1h3l2 1c0 1 1 2 2 1h-1l1-1c1 1 3-1 2 1h-1c-2 1 0 2 1 2h0c-1 0 0 3 1 2h1-1l-1 1h3c0-2 1-1 1 0h1l1-1h2v1c0-1-3-1-1-1 0 2 2 2 3 1-1 1 2 2 3 1s1 1 1 1l3 2s0 1 0 0c0 2 1 0 1 1l3 1h6a7 7 0 005 2v-1 1c1-1 7 2 5 0 0-2-3-3-4-5v-4l-1-3v-57h-80c-5 0-8 0-7 1v-1l-1 1c-2 0 1-2-1-1 0 2-1 4-1 1h-1v-1H934l1 1-3-1h-1a1 1 0 00-1 0c1 1 1 1 0 0h-2a1 1 0 00-1 0h-8a2 2 0 00-2 1h-4l1 2c1 0 2 0 1 1-5-2-2 2-3 2-1-1-2 2-3-1 1 1 2 1 2-1h1c0-1 0-2 1-1v-2l-79-1H283v1-1H0v71l1 6c-1 0-1 0 0 0l-1 1v-1 4c0 2 1 4 4 3l1 1c0 2 4 2 3 2 1 1 2 0 1 1h1c1 1 6 2 4 0l-1-1c3 0 1 0 1 1l2 1c-2 0 0 1 1 1h1l1 1h3l3-1c1 0 3 2 4 1h1s2 0 1-1l1 1h1c1-1 5 1 5-2h1l-1 1-1 1h3c0 1 4 2 3 0l1-1h1v1l-1 1 2-1h8l-1 1c1 1 1-1 2-1h1s1 0 0 0c-1 1 1 1 1 1h2v-1 1l2-1c-1 1 2 1 2 1 3 1 5-1 3-2h8l1 1h3v-1h3l-1 1h2l2-1 3 1v-2c2 0 1 1 1 2l7-2h1l2-1v1l-2 1c2 0 4 1 4-1v-1l-1-1c2 0 0-1 1-2l1 1h1l1 1c1-1 3 2 3 0 0 0 0-1 0 0v-1s1 0 0 0v-2h2v2s3 0 2-1v-1l1 1 3 1-1-2 1 1h1l-1 1h1l1-1c1-1 5 0 6-2v1h3l1 1h1l1 1 2 1s1 0 0 0h2v1h1l2 1v-1c-1-1 1 0 1-1 2 1 0 2-1 2h1v1l1-1 2 1c2 2 2-2 3-1v1h-1v1c1 0 0 0 0 0 1 0 4 2 4 0 2 1 10 2 11 1h5l3-1h-2l1-1h7c1 2 2 1 3 1l2-1-1-1c2 3 4 1 5 0 1 1 3 3 4 1v1l1-1c1 1 2 0 2-1a1 1 0 001 0c0 4 1 2 3 0l1 1c-1-3 1 1 3 0 2-3 1 3 3-2l2 2-1 1h2v-1 1c1 2 2-1 3 1l1-1h-2 1l-1-1c-1-2 0 0 1-1v1l2 1s0-1 0 0v-2c3 3 2-1 4 0 0 1-2 1-1 2v-1h5c0-1 0 0 0 0h3-1 1l1 1c1 0 5-2 5 1l6-1 5 2 11-1 15-1 20-2 37-2 61 2 21 1 19 1 45 4 3 1h3a4 4 0 004-2c-3 3 4 2 5 2-3-1 1 0-1-3 1-1 1 1 2 1 1 2 1 1 2 0 0 2 3 2 3 2 0-2 1 0 2-1 0-2 1 1 2-1 0 1 6 5 4 2h1l1 1 1-1 1 1c-2 1 1 1 1 1l3 1h1c-4-1-1-1 1-1l1-1c1 1 0 1-1 2h6l17-2h2l9-2c-1-2-1-1 1-1-1 1 0 1 1 1-1-1 1-1 1-2l1 1c-4 2 6 0 8 0l20-1h1v-2l1 1v-1 2c1 0 2-2 2 0l4-1c0-2 2-1 1 1l1-1c2-1 1-2 1-2 1 1-1 3 1 2 1 0 2 1 3-1l2 1c0-2-4-1-1-3l2 2c-1 0-1 1 0 0l2 1h2c-2-3 3-4 2-2-2 1 3 2 2 0l2-1 1 2 2-1h0v-1c-1-1 0 1 1-1h2v2c1 0 3 0 3-2h1l1 1c2-1 1 0 1 1 1-2 2 0 3-1h2l14-1h4l22-3h5c8-2 20-3 29-3s18 2 27 4c19 2 38 6 57 6l6-1h2l3-1h5c2-3 0 0 0-2l1 1v1c1-1 3 1 2-1l-1-1 1-1h2v2l1-3c2 0 2 1 1 2h2v-1c0 1 0 0 0 0h2c1 0 0 0 0 0h1c-1-2 2 0 1-1 2 0 0-2 1-2l2 1h1v-3 1h-1c1 2-3-3 0-2-1 2 1 0 1 1 2 0 1 2 2 1l-1 1c3 0 6-2 2-1v-1 1l2-1c-2-1 4 1 4-1h-1c0-2-1 0-1-1v1s-2-1 0-1h-2v-2 1l1-1h2c1 3 1 0 2-1v4l3-1 1-1 1-2c-1 1 1 1 1 2 1 0 1-2 2-1h1-1v2l1-1c4 0 1-3 2-3h1v1c1 1 2-1 2 1 1-2 1-1 3 0v-2h1l3-1c-2 1 1 2 1 1l1 1 2 1c4 0 1-6 3-2l2-1v1c1 1 0-2 1-1 1 3-2 1 0 3l2-1 1 1v-3l1 2 1 1h9v-1h1l1 1c0-2 2 0 3-1h1l1 1h1v-2c1 0 2 0 1 2l3-3c-1 2 1 2 1 3h2l1-1c1 2 2-1 4 0v-1c0 1 2 2 1 0l2 1 2-1 1 1v-2c0 1 0 0 0 0h1v-1l1-1v3c-2-1-1 0-1 1h2c2-1 3 1 3-1h1l2 1c-1 0 0 0 0 0v-1l2-1-1 1h1l1 1a1 1 0 001-2c2 0 1 1 2 2l1-1 1-1h1c0 3 2-1 2 0l1-1v1l3-1h4v-1h4c-1 2 3 0 3-1l1-1c1 0 2-2 0-1-1-1 1-2 1-1l1 2h1v-1l1-1h1l2 2h3l1-1v-2 1h3v-1s1 2 2 1h2c2-1 5 1 5-1 2 0 3 2 4 0v1c1-1 5 0 6-2 1 1 2 2 3 0l11-1c3-2 10-1 13-3 2 0 2 0 2-2 2 0 3-1 4-3 3-4 4 2 7-3h4l1-1v-1l1 1h2l-1-1 4-1v1s-1 0 0 0c0 1 2 2 3 1l1-1v-1h3v1l3-1v-1l1 1c2 2 8-1 10 0h-1v1l3-1c1-1-1-1-1-2 2 0 3 2 1 3h2l2-1 5 1v-1h1c-1 0 0 0 0 0 0 1 0 0 0 0h14a405 405 0 0141 1zM431 705l-1-6-1-27-2-27h-2l1-1 1-1v-3h-1l-1-1h2l-1-3v-8-3l-1-4h1l-1-1v-4a1 1 0 00-1-1c2-1 0-2 0-4h1v-3c-1 1-1 0-1-1a1 1 0 001 0l-1-2v-2c0-1 0 0 0 0h-1l1-3v-6l-1-5-4-68v-1L386 6V5h-85v1l-1-1h-6v1l-1-1h-35l-2 4-2 21v11l-2 22-4 59-3 53-24 370-6 106-2 16v11l-1 17-1 2v14l-1 3v2h4v-1l27 1h48l7-1c-1-1-1 1-2-1h1v-1c-3 0 0-1 1-3v-1l-1 1-1 1v-1c-3 0-3-2-1-3 0-2-2 0-2 1v-1l-2-1c0-1 0-2-2-2l1-1 1 1 1 1c0-2 1 0 2 0l1-1v1l1-1h1c1-1-1-1-2-1 0-1-1-2 1-2v1c0-2 0-2 2-1l-1-1v-2l1-1-2-1v2l-2-1 2-1v-1l2 1c0-1 0-2-1-1v-1c2 0 1-1 0-1 0 2-5 0-2 2h-4c0-2 2 1 2 0v-1c3-1 2-1 1-3v2l-1-1v-2c0 2 2 1 2 0-2 1-3-4-1-3 1 1-1 1-1 1l1 1c3-3-5-9 1-9-1-2-3-1-3-3v-1c0-2 2 1 2-1h2l1-1v-1c-1 0-3 1-2-1 2-1 0-2 2-1 2-4-5-1-2-4-1-2 1 0 1-1h2v-2h-1l1-1-2-2 1-2-1-1h1l1 2c0 2 1 0 1-1v-2 1-1h-2c2-1 3-3 3-5v-26h1l1-1v1h8c0-1 0-1 0 0a3 3 0 002-2h-1v-2c1 1 0 2 2 2v1c-2 1-1 1 1 1h21l4 90c8-2 20-1 34 0h50c7-2 10-5 10-11zm-139-34l1 1h-1v-1zm38-128h-27v-18l1-23 2-57 2-38 8-243v8c2 124 7 247 14 371zm1315-239c0-2 1 0 2-1l-1-1c0 2 0-1-1 1v-1l1-1v-2l-2-2c2 0 2-1 1-1v-2 1h-1l1-4 2-1-1-2c0 3-1 0 0 0l-1-1c0-1 2-1 1-3-3 1 1-2-1-2l1-2 1 1v1-4h-2l1-2c1 0 1 1 1-1h-2c0-1 2-1 0-1-1-1 1-1 1-1l1-1-1-1v-1c1-2-2-1-2-2 2-2 2-1 3 0 1-1-1-2-1-2-1 1-2-1-2-1a3 3 0 003 0v-1h-1 1v-4h-1v-1l1-9c0-13-1-27-3-40l-5-16c-4-9-9-17-18-22-6-4-12-6-18-8l-19-4h-26l-7-1h-33l-26 3-21 6c-12 6-20 15-24 27-3 6-5 13-6 20l-2 125v360l3 128v2l2 6v2l1 1c2 1 5 5 6 1 2 0 4 3 3-1 2 0 1 1 2 2h2c1 1 1 0 1-1l1-1h1v1h-1c2 1 1 1 1 2 2-1 5 1 5-2 4 1 7-6 8-1h2l10-2c4 2 2-1 6 0h7v-1c0 1 6 3 4 1l2-1c-1-1 1 0 1-1v1h3v-1h2l-1-1v-1h1v2l2-1c-1-6 4-1 5-5l8-1-1 1 2-1a3 3 0 002-2c1-1 2 2 3 0l2 1 3-1c1-1-1-1-2-1l2-1c3-3 3 5 4 1h1c-2 1-1 2 1 2h3l1-1 5 1v-1c0-2 0 0 1 0v-1l2 2-1-2h3l-1 1c0 2 1 0 2 1h1v-1h1c0 6 0-3 2 0l-1 1h2l3-1h1c3-1 4 0 6 1 2-4 2 0 4-1h3c0-2 0-1 1-1v-1c1 1-2 2 0 2h4c0 2 1 0 1 0 0-1 0 0 0 0h7l-1-2v1c1-1 1 1 1 1h7-1 5v1h2s2 0 1-1c1-1 0 1 1 1 2-3-1-1 0-3 0 0 2 0 1 1 2-1 0 2 1 2h1l1 1c0-2 2 0 3 0l3-1c-1-1 0 0 1-1l1 2 2-2h-1v-1c2 3-1-5 3-2l-1 1v1c0 1-1 2 1 2 0 0 4 1 4-1v-1c1 0 0 0 0 0h2v1s1 3 2 1h4c1 0-2-1 0-1l3 1h6v-1h-1l1-1-1-1 1-2v-1s1-4-1-3l1-1-1-1v-5c0-1 2-3 0-4l1-3v-2c1-1-1-1-1-1-1-1 1-1 1-1-1-2 1-2 1-4l-1-2c0-1 2-1 1-3l-1 1v-2c-1 1 0-2 1-1v-3c-2-1 0-1 0-1-2-1 1-2-1-2v-3h1l1 1 1-6V638l-2-23c2 0 1-4 2-5a1 1 0 01-2 0v-1-1c1 2 2 1 2 0v-6l-1-4c0-1 0-1 0 0v-2l1-1-1-1c2 0 0-2 1-2h-1v-1c-2 0 0 1-1 2l-1-1 1-2 2 1v-3c-1-1-3-3-1-3 0 2 1 2 1 0v-1a3 3 0 01-3-2c2 0 2 1 2 2v-1c1-1 0-1-1-3 3 1 1-2 1-3v-1h-2c2 0 2-1 0-1 1-1 2-2 0-2-1-2 2-3 0-6l1 1c1 2 2 1 1 0h1c0-4-2 3-3-4-1-3 3 1 3-2-2 2-2-1 0-1a2 2 0 00-2-1c2-2 0-2 0-4h-1l3 1v-1c-2 0-2-1-1-1v-1l1-1v-1a2 2 0 00-2-1c2 0-2-4 1-3v-2l1-1v-1c-1 0-1-1 0 0-1-1 0-3-1-2v-3h-2l2-1c-1 0-1-2-2-1 1-1 2-3 0-4 0-2 1 1 2 0-5-3 1-1 0-3l1-1c0-1-3-1-2-2l1-2c-1-1-2 0-1-1v-4c0-2-1 0-2-1 0-2 2-3 2-1-2 0 1 2 1 0 1-1-1 2 1 1v-2c-1-1-2 0-1-1 0-1-2 2-1-1h-2l2-2-2 1 1-1 1-1c0-1-2 0-1-1l2-1h-2l-1 1c1-1 3-8 0-4v-1l1-1v-1c-1-1 1-1 2-2h-1v-3c-2 0-1-1-1-3l1-1c2 1 2 1 1-1-2 0-1 2-2 1l1-1c0-1 0-2 1-1 0-2-3 1-2-3l1 1h1v-2l1-2c-1-1-1 0-1 1-2 0 0-1 0-2l-1-1v-1c0-1-1-1 1-1l-2-1v-1h1c0-1-2-2-1-3 0-1 2-2 0-2l1-1c0-1 0-3 2-3 0-5-3-3-3-5 2 0 1-2 0-3 3 0 1 2 2 3l1-3h-2v-1h1v-1l1-1h-2 1l-1-1 2-1-1-3-1-1-1-1c0-1 3 1 0-2 2 0 1-2 1-3 1 0 1-1 1 1 1 1 1-2 1-2l-1-1-1-2v-1l-1-2h1l-1-1v-3l1-1 1-1-2 1v-1l2-1-1-3h2l-1-2c-1 1-2 0-1-2-1 0 2-1-1-1 0-1 2-2 0-3 0-1 2-1 1-2l-1 1 2-2v-2h-1c-2 0 0 0-1-2-1-1 1-3 1-4l-1 1c2-1 3-5 1-2h-1s2-1 0-1c1-2 2 0 2-1h-1l-1-1h1c1-1 0 0-1-1h2v-1c-1-1-2 2-3 0 2-1 1-3 0-4 2 0 0-2 2-2h2l-1-1h1v-1l-1-2c0 1 0 0 0 0h-1c0-2 1-1 1-1v-1c-2 0-1-1 0-1l-2-4c3 1 0-1 0-2l2-1v-1 1c-2-1 0-2 0-4l-2 2v-3l-2 1 2-2s-1 0 0 0c3-1-1-2 0-3 2 2 1 2 1 4 3 0 0-2 0-5h-1c2 0 0-2 0 0l-1-1h1l1-2c-3 1 0-2-1-3-1 0-1 2-2 1l1-1c-2 0-1-2 1-1v-2l1 1c-1-3-2-2 0-4h-1v-1l-1-1c3 1-1-2 1-2l-1-1v-1c2 1 1-2 3-1h-1c1-1 0-1-1-1v1c0-1 2-3 0-2v-4l-1-2v-2h2v-1c1 0 2-1 0-2v1-1h-1v-1h-1c-1 0 0 0 0 0 1-1 1 1 2 1l-1-2h-1 1c1-1 0-1-1-2l2-4v-2c-1 0-2 1-2-1 2 1 1 0 1-1h-1v-1c1 2 2 0 1-1v-1h1c-1-1 0-1 1-1l-1-1v-1l1 1v-1l-1-2c0 2-2 0 0 0 1-3-1 1-1-2v-3h-1 1s0-2 1-1c0 0-1 1 1 1v-3c0-1 0-2-1 0v1c-2 0 0 0 0-1h-1c1-1-1-1-1-3l2 2-1-2 1-1 1-1v1c0-1 0-3-2-2h2v-3c-1-1-2-3 0-1v-1h-2l1-1s-2 0-1-1zm-92 145v333l-1 1c-1 4-2 6-5 7a8 8 0 01-7 1c-3-1-5-3-6-6l-1-7V269l1-12c0-4 2-6 4-7 2-2 4-2 8-1l3 1 1 1c2 2 3 6 3 13v185zm94 105c-3-1-1-3 0 0zm-225 283c-2-22-2-59-1-100V610c-1-22-3-40-5-53l-5-13c-6-11-15-20-27-24h-3v-1h-3l-1-1h-1l3-1 2-1 4-1 5-2 5-3 1-1c8-6 14-13 17-22 3-7 5-16 6-27v-2l2-27v-5c-3-18-2-45 0-74v-93l-1-25c-4-26-11-46-25-57l-5-3-2-1-9-4-5-1-5-1-5-1c-2 0-3 0-2 1l-7-2h-39v6h-2v1h-1l1-1 1-3-1 1c-2-1-1-3-1-4h-100l-1 16v651l2 1h1l-1 1c-1 1 3 1 3 1 0-2 0-1 1-1 0-1 0-1 0 0-1-1-1 2 1 0h1l2-2c0 1-2 3 0 2 1-1 1-3 1-1v1c1 0 1 0 0 0h1c3 1 2 0 4-1-1 2 2 2 2 4 2 0 2 0 2-2l1 2 1-2c-1 2 0 2 1 1v-1s0 2 1 1a2 2 0 002 1h1l1-1v1c2 0 3 0 2-1 1-1 0 1 2 1v-1h1l2 1c0-2 1 0 2 0 0-1 0-1 0 0h1v-2c1 0 0 0 0 0 2 0 2 2 0 1 1 2 2 0 3 1l2-1c0-1 0 0 0 0 2-1 3 0 5 1h3v-1l1-1v2l1-1c0 2 3 1 4 1v-1c1 1 5 4 4 0 0 0 1 0 0 0l1 1-1 1c2 0 1-1 2-2h3v1a1 1 0 002-1l2 1 2-1h2v-1l2 1c-1-2 1 1 1 0l3-1c0 2 2-1 2 0v-1c0-1 0 0 0 0v1l-1-1h-1c4-3 3 4 5 1l2-1h8v-88c-2-55-4-121 0-157v-26h7l6 1h1v1c4 2 5 8 5 16v29c3 39 2 81 0 122v83l2 21 3 2v-1h1l1-1v-1h-1c1 0 2 1 2-1v1l2 3c4-1 1-1 1-3 3 2 6 4 7-1 4 1 0 0 2 3l5-1h-1l1-1h1c21 1 47 0 66 6 5 1 4 2 4-4zm-96-439v60c0 11-2 15-9 15h-10v-24c-3-33-1-93 0-137v-58c4-2 7-2 9 0h1c7 0 9 4 9 15v11c5 30 2 79 0 118z" fill="#fff"/></g><defs><clipPath id="clip0"><path fill="#fff" d="M0 0h2002v856H0z"/></clipPath></defs></svg>